# xmcd
#
# Track frame offsets:
#	150
#	12952
#	25327
#	36005
#	47254
#	59969
#	71327
#	83721
#	97089
#	108130
#	121982
#	134230
#	143310
#	152599
#	164199
#	177106
#	187560
#	198195
#	209487
#	220171
#	229451
#	237957
#	249198
#	260281
#	272895
#	284220
#	292978
#	304165
#	317033
#	328175
#	339481
#
# Disc length: 4678 seconds
#
# Revision: 1
# Processed by: cddbd v1.5.2PL0 Copyright (c) Steve Scherf et al.
# Submitted via: FairStars CD Ripper 1.80
#
DISCID=cb12441f
DTITLE=Various Artist - The Last Shout! Twilight of the blues shouters 1954-1962 cd1
DYEAR=2014
DGENRE=Blues
TTITLE0=Wynonie Harris - Bloodshot Eyes 
TTITLE1=Joe Turner and His Blues Kings - Feeling Happy 
TTITLE2=Jimmy Witherspoon and The Quintones - My Girl Ivy 
TTITLE3=Eddie 'Cleanhead' Vinson - Hold It Right There! 
TTITLE4=Wynonie Harris - A Tale Of Woe
TTITLE5=Jimmy Witherspoon and The Starlights/Jesse Stone Orchestra - Who Baby Who? 
TTITLE6=Joe Turner and His Blues Kings - Hide and Seek 
TTITLE7=Eddie Vinson - Big Chief Rain In The Face 
TTITLE8=Jimmy Witherspoon - I Gotta Go Home
TTITLE9=Wynonie Harris - There's No Substitute...
TTITLE10=Eddie Vinson - Suffer Fool 
TTITLE11=Joe Turner with Choker Campbell Orchestra - I Need A Girl 
TTITLE12=Wynonie Harris - That's Me Right Now 
TTITLE13=Jimmy Witherspoon - Teenage Party 
TTITLE14=Eddie Vinson - Old Man Boogie 
TTITLE15=Joe Turner with Jesse Stone Orchestra - Wee Baby Blues 
TTITLE16=Wynonie Harris - Tell A Whale Of A Tale 
TTITLE17=Eddie Vinson - Anxious Heart 
TTITLE18=Jimmy Witherspoon with Jesse Stone Orchestra - All Right Miss Moore 
TTITLE19=Joe Turner - Rock A While 
TTITLE20=Wynonie Harris - Destination Love 
TTITLE21=Eddie Vinson - You Can't Have My Love...
TTITLE22=Jimmy Witherspoon with Jesse Stone Orchestra - When I Start To Thinking 
TTITLE23=Wynonie Harris - Big Old Country Fool 
TTITLE24=Eddie Vinson - That's The Way To Treat Your Woman 
TTITLE25=Joe Turner with Choker Campbell Orchestra - Love Roller Coaster 
TTITLE26=Jimmy Witherspoon - You Can Make It...
TTITLE27=Eddie 'Cleanhead' Vinson - Tomorrow May Never Come 
TTITLE28=Joe Turner with Jesse Stone Orchestra - Teen Age Letter 
TTITLE29=Wynonie Harris - Sweet Lucy Brown 
TTITLE30=Jimmy Witherspoon - Endless Sleep 
EXTD=
EXTT0=
EXTT1=
EXTT2=
EXTT3=
EXTT4=
EXTT5=
EXTT6=
EXTT7=
EXTT8=
EXTT9=
EXTT10=
EXTT11=
EXTT12=
EXTT13=
EXTT14=
EXTT15=
EXTT16=
EXTT17=
EXTT18=
EXTT19=
EXTT20=
EXTT21=
EXTT22=
EXTT23=
EXTT24=
EXTT25=
EXTT26=
EXTT27=
EXTT28=
EXTT29=
EXTT30=
PLAYORDER=
